<svg viewBox="0 0 110 94" fill="none" xmlns="http://www.w3.org/2000/svg">
<path d="M6.13276 2.89142H103.15C104.254 2.89448 105.312 3.33058 106.096 4.10542C106.881 4.88026 107.329 5.93255 107.344 7.03471V56.7758H1.92874V7.03471C1.94639 5.93184 2.39679 4.87963 3.18326 4.10463C3.96974 3.32979 5.02852 2.89448 6.13276 2.89142Z" fill="white"/>
<path d="M35.61 45.8285V35.6075H42.198V45.8277L35.61 45.8285ZM50.5055 45.8285H44.4899V34.4633C44.4899 34.1598 44.3695 33.8685 44.1546 33.6539C43.9398 33.4393 43.6482 33.319 43.3444 33.319H34.4185C33.7855 33.319 33.2722 33.831 33.2722 34.4633V45.8285H27.0164V31.1218L38.8757 19.2761L50.425 30.8696L50.5055 45.8285Z" fill="#D84D5D"/>
<path d="M103.514 1.94597e-05H6.49692C4.7851 0.00308512 3.14234 0.67982 1.92684 1.88387C0.710681 3.08791 0.0185885 4.72193 0.000163615 6.43262V69.0034C-0.0121131 70.7324 0.666937 72.3948 1.88695 73.6218C3.10617 74.8488 4.76579 75.5386 6.4969 75.5386H39.1078V85.9879H31.2591C30.6261 85.9879 30.1136 86.5006 30.1136 87.1329V92.8558C30.1136 93.16 30.234 93.4497 30.4489 93.6643C30.6637 93.8789 30.9553 94 31.2591 94H78.7416C79.0454 94 79.337 93.8789 79.5518 93.6643C79.7667 93.4497 79.8871 93.1593 79.8871 92.855V87.1322C79.8871 86.8287 79.7667 86.5382 79.5518 86.3236C79.337 86.109 79.0454 85.9879 78.7416 85.9879H70.9037V75.5386H103.515C105.243 75.5355 106.9 74.8442 108.117 73.618C109.335 72.3917 110.012 70.7308 110 69.0033V6.4325C109.981 4.72417 109.292 3.09177 108.078 1.88768C106.864 0.684411 105.225 0.00616058 103.514 1.94597e-05ZM6.49692 2.2893H103.514C104.618 2.29237 105.676 2.72846 106.46 3.5033C107.245 4.27814 107.693 5.33044 107.708 6.4326V56.1737H2.29291V6.4326C2.31055 5.32973 2.76095 4.27752 3.54743 3.50252C4.3339 2.72768 5.39269 2.29237 6.49692 2.2893ZM77.5958 91.6515H32.4037V88.2179H77.5958V91.6515ZM68.6124 85.9286L41.3993 85.9294V75.5368H68.6124V85.9286ZM107.707 69.0017C107.723 70.123 107.288 71.2029 106.5 72.0014C105.712 72.7993 104.636 73.2484 103.514 73.2484H6.49665C5.37332 73.2484 4.29686 72.7993 3.50722 72.0014C2.71691 71.2044 2.27955 70.1237 2.29182 69.0017V58.4611H107.707L107.707 69.0017Z" fill="#3D4E60"/>
<g opacity="0.3">
<path d="M35.7007 92.5252H78.1568V89.0342H35.7007V92.5252Z" fill="#3D4E60"/>
<path d="M44.1517 86.7073L69.7172 86.7065V76.1406H44.1517V86.7073Z" fill="#3D4E60"/>
</g>
<path d="M20.6248 34.2329L22.5615 32.2985V45.861C22.5615 46.1645 22.6819 46.4557 22.8968 46.6703C23.1116 46.8849 23.4032 47.006 23.707 47.006H49.3624C49.6663 47.006 49.9578 46.8849 50.1727 46.6703C50.3876 46.4557 50.508 46.1645 50.508 45.861V32.0472C52.9718 34.5081 52.9602 34.6339 53.5672 34.6339C54.0329 34.6362 54.4542 34.3572 54.6322 33.928C54.811 33.4988 54.7112 33.0037 54.3813 32.6765L37.4801 15.738C37.2652 15.5211 36.9721 15.3992 36.6667 15.3992C36.3606 15.3992 36.0682 15.5211 35.8526 15.738L18.9638 32.6074C18.7467 32.8228 18.6247 33.1148 18.6247 33.4206C18.6247 33.7256 18.7467 34.0184 18.9638 34.233C19.1802 34.4606 19.4802 34.5893 19.794 34.5893C20.1086 34.5893 20.4084 34.4606 20.6248 34.2329ZM33.4011 44.7168V34.4959H39.989V44.716L33.4011 44.7168ZM48.2965 44.7168H42.281V33.3516C42.281 33.0481 42.1605 32.7569 41.9457 32.5423C41.7308 32.3277 41.4392 32.2074 41.1354 32.2074H32.2095C31.5765 32.2074 31.0632 32.7193 31.0632 33.3516V44.7168H24.8074V30.0101L36.6667 18.1644L48.216 29.758L48.2965 44.7168Z" fill="#3D4E60"/>
<path d="M78.3678 19.9023H92.6217C93.2547 19.9023 93.768 19.3904 93.768 18.7581C93.768 18.1258 93.2547 17.6138 92.6217 17.6138H78.3678C77.7355 17.6138 77.2222 18.1258 77.2222 18.7581C77.2222 19.3904 77.7355 19.9023 78.3678 19.9023Z" fill="#3D4E60"/>
<path d="M66.7727 19.9023H73.8887H73.8879C74.5209 19.9023 75.0342 19.3904 75.0342 18.7581C75.0342 18.1258 74.5209 17.6138 73.8879 17.6138H66.7727C66.1397 17.6138 65.6264 18.1258 65.6264 18.7581C65.6264 19.3904 66.1397 19.9023 66.7727 19.9023Z" fill="#3D4E60"/>
<path d="M66.7727 26.1298H92.6226C93.2556 26.1298 93.7689 25.6178 93.7689 24.9856C93.7689 24.3533 93.2556 23.8405 92.6226 23.8405H66.7727C66.1397 23.8405 65.6264 24.3533 65.6264 24.9856C65.6264 25.6179 66.1397 26.1298 66.7727 26.1298Z" fill="#3D4E60"/>
<path d="M66.7727 32.3435H92.6226C93.2556 32.3435 93.7689 31.8308 93.7689 31.1993C93.7689 30.567 93.2556 30.0543 92.6226 30.0543H66.7727C66.1397 30.0543 65.6264 30.567 65.6264 31.1993C65.6264 31.8308 66.1397 32.3435 66.7727 32.3435Z" fill="#3D4E60"/>
<path d="M66.7727 38.571H92.6226C93.2556 38.571 93.7689 38.0582 93.7689 37.426C93.7689 36.7944 93.2556 36.2817 92.6226 36.2817H66.7727C66.1397 36.2817 65.6264 36.7944 65.6264 37.426C65.6264 38.0583 66.1397 38.571 66.7727 38.571Z" fill="#3D4E60"/>
<path d="M66.7727 44.7847H78.368C79.001 44.7847 79.5143 44.2727 79.5143 43.6404C79.5143 43.0081 79.001 42.4962 78.368 42.4962H66.7727C66.1397 42.4962 65.6264 43.0082 65.6264 43.6404C65.6264 44.2727 66.1397 44.7847 66.7727 44.7847Z" fill="#3D4E60"/>
</svg>