<svg viewBox="0 0 110 76" fill="none" xmlns="http://www.w3.org/2000/svg">
<path d="M3.71171 52.3641C2.67292 52.3641 1.86523 51.5483 1.86523 50.499C1.9804 50.499 1.86523 51.8981 1.86523 3.74822C1.86523 2.69897 2.67292 1.88315 3.71171 1.88315H68.0021C69.0409 1.88315 69.8486 2.69897 69.8486 3.74822C69.9637 3.74822 69.8486 2.46553 69.8486 52.3637H38.2238C32.7987 46.6514 23.7958 46.6514 18.3719 52.3637H3.7129L3.71171 52.3641Z" fill="white"/>
<path opacity="0.4" d="M97.376 30.4727H81.6789C81.3327 30.4727 81.1016 30.2392 81.1016 29.8895V17.5319C81.1016 17.1821 81.3327 16.9487 81.6789 16.9487H91.8357C92.2972 16.9487 92.6434 17.1821 92.7594 17.5319L98.5307 28.6076C98.9921 29.5398 98.2996 30.4727 97.376 30.4727Z" fill="#3D4E60"/>
<path d="M23.2184 39.1228V29.1374H29.583V39.1221L23.2184 39.1228ZM37.6089 39.1228H31.7973V28.0196C31.7973 27.723 31.6809 27.4385 31.4733 27.2289C31.2658 27.0192 30.9841 26.9017 30.6905 26.9017H22.0672C21.4557 26.9017 20.9598 27.4018 20.9598 28.0196V39.1228H14.916V24.755L26.3733 13.1823L37.5312 24.5087L37.6089 39.1228Z" fill="#D84D5D"/>
<path d="M109.996 56.6602C108.611 27.281 108.957 28.9139 108.15 27.397L99.3778 10.4926C98.4541 8.74379 96.7228 7.57822 94.6452 7.57822H74.9074C74.0997 7.57822 73.2912 7.81166 72.5987 8.27772V4.19702C72.5987 1.86508 70.7522 0 68.4435 0H4.15517C1.84648 0 0 1.86508 0 4.19702V50.9478C0 53.1627 1.73132 55.0285 3.92406 55.1449V60.8572C3.92406 62.3725 5.19396 63.6552 6.69417 63.6552H15.2356C16.1593 71.3498 23.0845 76.8295 30.5864 75.8965C36.9343 75.0807 41.8979 70.0671 42.7056 63.6552H45.4757C45.822 65.2877 47.2071 66.5695 48.9384 66.5695H64.2892C66.0205 66.5695 67.4055 65.2869 67.7518 63.6552H75.8318C76.7554 71.3498 83.6807 76.8295 91.1826 75.8965C97.5305 75.0807 102.494 70.0671 103.302 63.6552C107.111 63.6552 110.112 60.5075 109.997 56.6602H109.996ZM4.15398 52.8129C3.11519 52.8129 2.3075 51.9971 2.3075 50.9478C2.42267 50.9478 2.3075 52.3468 2.3075 4.19702C2.3075 3.14777 3.11519 2.33194 4.15398 2.33194H68.4443C69.4831 2.33194 70.2908 3.14777 70.2908 4.19702C70.406 4.19702 70.2908 2.91433 70.2908 52.8125H38.666C33.2409 47.1002 24.2381 47.1002 18.8142 52.8125H4.15517L4.15398 52.8129ZM15.0033 61.3241H6.57783C6.34672 61.3241 6.11641 61.0906 6.11641 60.858V55.4954C6.11641 55.262 6.23157 55.1457 6.46267 55.0293H17.0817C15.927 57.01 15.2344 59.1084 15.0033 61.3241ZM40.2806 63.6552C39.4729 70.0671 33.7016 74.4975 27.3537 73.6817C22.1597 72.9822 18.1197 68.9015 17.4272 63.6552C17.0809 60.0414 18.3508 56.4267 21.005 53.9785C21.4664 53.5124 21.9286 53.1627 22.39 52.8129C26.7763 49.8986 32.6628 50.3646 36.4717 53.9785C39.2418 56.4275 40.6269 60.0414 40.2806 63.6552ZM65.3283 62.9557C65.3283 63.6552 64.751 64.2384 64.0584 64.2384H48.7077C48.2463 64.2384 47.9 64.005 47.6689 63.6552C47.4378 63.3055 47.4378 63.072 47.4378 62.0228C47.4378 61.3233 48.0151 60.7401 48.7077 60.7401H64.0584C64.5199 60.7401 64.8661 60.9735 65.0972 61.3233C65.4435 61.6738 65.3283 61.9065 65.3283 62.9557ZM67.6362 61.3241C67.29 59.5753 65.9049 58.4097 64.1736 58.4097L48.7077 58.4089C46.9764 58.4089 45.5913 59.6916 45.245 61.3233H42.4749C42.3598 59.1084 41.6672 57.0099 40.3973 55.1441H70.176C70.176 58.9913 69.9449 59.9243 70.8686 61.3233L67.6362 61.3241ZM107.227 46.8671H104.572C104.226 46.8671 103.995 46.6337 103.995 46.2839C103.648 37.8899 103.533 38.356 103.764 38.1233C103.995 37.8899 103.995 37.8899 106.765 37.8899L107.227 46.8671ZM100.994 63.6552C100.302 70.067 94.6464 74.7309 88.4137 74.0314C82.0658 73.3319 77.4484 67.6196 78.1409 61.3241C78.7183 55.3783 83.6811 50.8315 89.6828 50.8315C96.3769 50.8315 101.687 56.7773 100.994 63.6552ZM103.302 61.3241C102.379 53.6295 95.4541 48.1498 87.8363 49.0827C81.4884 49.8986 76.5247 54.9122 75.717 61.3241H74.9094C73.6395 61.3241 72.6007 60.2748 72.6007 58.9921V12.3592C72.6007 11.0765 73.6395 10.0273 74.9094 10.0273H94.6464C95.8004 10.0273 96.724 10.6104 97.3014 11.6597C106.881 29.9631 106.303 28.7975 106.419 29.7297L106.65 35.6755H104.111C102.495 35.6755 101.225 36.9581 101.225 38.5898C101.225 38.7061 101.225 37.8903 101.572 46.5178C101.687 48.0331 102.842 49.3158 104.457 49.3158H107.227L107.573 56.894C107.804 59.2259 105.726 61.3245 103.302 61.3245V61.3241Z" fill="#2A3541"/>
<path d="M93.442 14.9394C92.8646 13.7738 91.7107 13.0743 90.4408 13.0743H80.284C78.6678 13.0743 77.3987 14.357 77.3987 15.9886V43.1533C77.3987 43.8528 77.8601 44.3189 78.5526 44.3189C79.2452 44.3189 79.7066 43.8528 79.7066 43.1533V31.2618C80.168 31.3781 79.0141 31.2618 96.0961 31.2618C98.7511 31.2618 100.482 28.3474 99.2125 26.0155L93.442 14.9394ZM95.981 28.9294H80.284C79.9377 28.9294 79.7066 28.696 79.7066 28.3462V15.9886C79.7066 15.6389 79.9377 15.4054 80.284 15.4054H90.4408C90.9022 15.4054 91.2485 15.6389 91.3644 15.9886L97.1357 27.0644C97.5972 27.9965 96.9046 28.9294 95.981 28.9294Z" fill="#2A3541"/>
<path d="M28.6901 56.4439C25.3426 56.4439 22.6885 59.1256 22.6885 62.506C22.6885 65.8872 25.3434 68.5681 28.6901 68.5681C32.0376 68.5681 34.6918 65.8864 34.6918 62.506C34.8077 59.1248 32.0376 56.4439 28.6901 56.4439ZM32.2679 63.6716C31.114 67.0528 26.3814 67.0528 25.2275 63.6716C24.3038 60.6401 27.074 57.9592 29.96 59.0085C31.8065 59.5917 32.9604 61.5731 32.2679 63.6716Z" fill="#2A3541"/>
<path d="M89.5178 56.4439C86.1703 56.4439 83.5161 59.1256 83.5161 62.506C83.5161 65.8872 86.1711 68.5681 89.5178 68.5681C92.8652 68.5681 95.5194 65.8864 95.5194 62.506C95.5194 59.1248 92.7493 56.4439 89.5178 56.4439ZM92.9804 63.6716C91.8264 67.0528 87.0939 67.0528 85.94 63.6716C85.0163 60.8736 87.6713 57.9592 90.6725 58.8914C92.5182 59.5917 93.557 61.6902 92.9804 63.6716Z" fill="#2A3541"/>
<path d="M85.1306 35.4588H83.3993C82.7068 35.4588 82.2454 35.9249 82.2454 36.6244C82.2454 37.3239 82.7068 37.79 83.3993 37.79H85.1306C85.8232 37.79 86.2846 37.3239 86.2846 36.6244C86.2846 35.9249 85.708 35.4588 85.1306 35.4588Z" fill="#2A3541"/>
<path d="M9.41355 28.5797L10.9138 27.0644V39.1893C10.9138 39.8888 11.3752 40.3549 12.0677 40.3549H35.3841C36.0767 40.3549 36.5381 39.8888 36.5381 39.1893L36.5389 26.7146C38.5013 28.6968 38.6165 28.9294 39.1938 28.9294C40.2326 28.9294 40.694 27.6467 40.0015 26.9472C23.8423 10.6252 24.5348 11.2084 23.8423 11.2084C23.1497 11.2084 24.0734 10.5089 7.79895 26.9472C7.33753 27.4133 7.33753 28.1128 7.79895 28.5797C8.26037 29.0457 8.9529 29.0457 9.41434 28.5797H9.41355ZM26.6116 37.9067H20.8403V28.8131H26.6116V37.9067ZM13.3384 24.7324L23.8415 14.0064L34.2294 24.3827V37.9067H28.9203V27.6467C28.9203 26.9472 28.4589 26.4812 27.7663 26.4812H19.6871C18.9946 26.4812 18.5332 26.9472 18.5332 27.6467V37.9059H13.224L13.2225 24.7324H13.3384Z" fill="#2A3541"/>
<path d="M57.0845 29.5131V35.1091C57.0845 36.1584 58.3544 36.6244 59.047 35.9249C66.4337 28.4638 65.8571 29.1633 65.9722 28.9299C66.0874 28.6965 66.2033 28.3467 66.0874 28.1141C66.0874 27.7643 65.7411 27.4146 59.047 20.7693C58.3544 20.0698 57.0845 20.5359 57.0845 21.5851V27.1811H44.1576C43.4651 27.1811 43.0037 27.6472 43.0037 28.3467C43.0037 29.0462 43.4651 29.5123 44.1576 29.5123C44.1576 29.396 43.5802 29.5131 57.0845 29.5131ZM59.3932 24.3831L63.3173 28.3467L59.3932 32.3111V24.3831Z" fill="#2A3541"/>
<path opacity="0.4" d="M34.2546 64.2152C33.1006 67.5964 28.3681 67.5964 27.2141 64.2152C26.2905 61.1838 29.0606 58.5029 31.9467 59.5521C33.7932 60.1353 34.9471 62.1167 34.2546 64.2152Z" fill="#2A3541"/>
<path opacity="0.4" d="M94.8538 63.3362C93.6999 66.7174 88.9673 66.7174 87.8134 63.3362C86.8897 60.5382 89.5447 57.6239 92.5459 58.556C94.3916 59.2563 95.4304 61.3548 94.8538 63.3362Z" fill="#2A3541"/>
</svg>