<svg viewBox="0 0 90 94" fill="none" xmlns="http://www.w3.org/2000/svg">
<path d="M48.3366 3.14076L60.5202 15.3192H48.3366V3.14076ZM1.79619 91.4999V1.79688H46.3883V16.2958C46.3883 16.5544 46.4915 16.8019 46.6742 16.9847C46.857 17.1682 47.105 17.2707 47.3634 17.2707H61.9052V44.1234H53.1919C52.502 44.1247 51.8324 44.3578 51.2913 44.7861C50.7502 45.2138 50.3691 45.8119 50.2092 46.483H44.5367C43.9982 46.483 43.5623 46.9198 43.5623 47.4578V51.8554C43.5623 52.114 43.6647 52.3621 43.8475 52.5449C44.0302 52.7277 44.2783 52.8309 44.5367 52.8309H50.1797V59.0905H31.1552C30.6168 59.0905 30.1801 59.5273 30.1801 60.0653C30.1801 60.604 30.6168 61.0408 31.1552 61.0408H50.1313V64.6384H46.1349C45.5964 64.6384 45.1605 65.0752 45.1605 65.6132C45.1605 66.1519 45.5965 66.5887 46.1349 66.5887H50.1313V70.1862H11.5543C11.0158 70.1862 10.5792 70.6231 10.5792 71.1611C10.5792 71.6997 11.0158 72.1365 11.5543 72.1365H50.1313V75.7341H40.5205C39.9826 75.7341 39.546 76.1709 39.546 76.7089C39.546 77.2476 39.9827 77.6844 40.5205 77.6844H50.1306C50.1306 91.5298 50.0621 90.779 50.2964 91.462L1.79619 91.4999Z" fill="white"/>
<path d="M25.0617 38.2272V28.6997H31.1934V38.2265L25.0617 38.2272ZM38.9254 38.2272H33.3265V27.6331C33.3265 27.3502 33.2144 27.0787 33.0144 26.8787C32.8145 26.6786 32.5431 26.5665 32.2603 26.5665H23.9527C23.3636 26.5665 22.8858 27.0437 22.8858 27.6331V38.2272H17.0633V24.5183L28.1011 13.4763L38.8505 24.2833L38.9254 38.2272Z" fill="#D84D5D"/>
<path opacity="0.2" d="M90 92.8878C89.9941 93.4982 89.4987 93.9899 88.8885 93.9899C53.4209 93.9899 55.7501 94.0487 55.4477 93.8828C55.0646 93.7072 54.8146 93.3291 54.8042 92.9074C54.8042 92.9074 54.6775 49.3998 55.0378 48.9434C55.2473 48.6712 55.5724 48.5125 55.9157 48.5145H88.8886C89.5021 48.5145 90.0001 49.012 90.0001 49.6257L90 92.8878Z" fill="#3D4E60"/>
<path d="M12.3864 27.0774L14.024 25.4392V36.9256C14.024 37.1842 14.1265 37.4316 14.3092 37.6144C14.492 37.7979 14.74 37.9004 14.9984 37.9004H36.7532C37.0116 37.9004 37.2596 37.7979 37.4424 37.6144C37.6251 37.4316 37.7283 37.1842 37.7283 36.9256V25.2251C39.8135 27.3014 39.8135 27.3699 40.3109 27.3699C40.7071 27.3719 41.0648 27.1349 41.2169 26.7686C41.3683 26.4029 41.2841 25.9811 41.0028 25.7023C25.6712 10.3649 26.5289 10.9794 25.8468 11.1256C25.3691 11.1256 25.5251 11.1844 11.012 25.6925C10.828 25.876 10.7242 26.1247 10.7242 26.3852C10.7242 26.6451 10.828 26.8939 11.012 27.0773C11.3925 27.4554 12.0061 27.4554 12.3866 27.0773L12.3864 27.0774ZM23.108 35.9501V27.3014H28.7126V35.9501H23.108ZM35.7786 35.9501H30.6224V26.3265C30.6224 26.068 30.52 25.8199 30.3372 25.637C30.1545 25.4542 29.9065 25.3517 29.648 25.3517H22.0945C21.556 25.3517 21.1194 25.7879 21.1194 26.3265V35.9501H15.9729V23.4888L26.0027 13.456L35.7492 23.2062L35.7786 35.9501Z" fill="#2A3541"/>
<path d="M11.7047 61.1945H24.1416C24.6794 61.1945 25.1161 60.7577 25.1161 60.219C25.1161 59.681 24.6794 59.2442 24.1416 59.2442H11.7047C11.1662 59.2442 10.7296 59.681 10.7296 60.219C10.7296 60.7577 11.1662 61.1945 11.7047 61.1945Z" fill="#2A3541"/>
<path d="M21.2953 65.7677C21.2953 66.0263 21.3978 66.2744 21.5806 66.4572C21.7633 66.64 22.0113 66.7432 22.2698 66.7432H40.6711C41.2095 66.7432 41.6462 66.3064 41.6462 65.7677C41.6462 65.2297 41.2095 64.7929 40.6711 64.7929H22.2698C21.732 64.7929 21.2953 65.2297 21.2953 65.7677Z" fill="#2A3541"/>
<path d="M11.7047 77.8393H34.3265C34.865 77.8393 35.301 77.4025 35.301 76.8638C35.301 76.3258 34.865 75.889 34.3265 75.889H11.7047C11.1662 75.889 10.7296 76.3258 10.7296 76.8638C10.7296 77.4025 11.1662 77.8393 11.7047 77.8393Z" fill="#2A3541"/>
<path d="M41.7636 81.4364H11.7047C11.1662 81.4364 10.7296 81.8732 10.7296 82.4118C10.7296 82.9499 11.1662 83.3867 11.7047 83.3867H41.7636C42.3021 83.3867 42.738 82.9498 42.738 82.4118C42.738 81.8732 42.302 81.4364 41.7636 81.4364Z" fill="#2A3541"/>
<path d="M11.7046 66.7422H17.1532H17.1525C17.691 66.7422 18.1276 66.3054 18.1276 65.7667C18.1276 65.2287 17.691 64.7919 17.1525 64.7919H11.7047C11.1662 64.7919 10.7296 65.2287 10.7296 65.7667C10.7296 66.3054 11.1662 66.7422 11.7046 66.7422Z" fill="#2A3541"/>
<path d="M36.5973 42.6006H22.2696C21.7317 42.6006 21.2951 43.0368 21.2951 43.5754C21.2951 44.1141 21.7318 44.5503 22.2696 44.5503H36.5973C37.1357 44.5503 37.5724 44.1141 37.5724 43.5754C37.5724 43.0368 37.1357 42.6006 36.5973 42.6006Z" fill="#2A3541"/>
<path d="M11.7047 50.0973H36.5973C37.1357 50.0973 37.5724 49.6612 37.5724 49.1225C37.5724 48.5838 37.1357 48.1477 36.5973 48.1477H11.7047C11.1662 48.1477 10.7296 48.5838 10.7296 49.1225C10.7296 49.6612 11.1662 50.0973 11.7047 50.0973Z" fill="#2A3541"/>
<path d="M11.7047 55.6467H36.5973C37.1357 55.6467 37.5724 55.2099 37.5724 54.6713C37.5724 54.1326 37.1357 53.6964 36.5973 53.6964H11.7047C11.1662 53.6964 10.7296 54.1326 10.7296 54.6713C10.7296 55.2099 11.1662 55.6467 11.7047 55.6467Z" fill="#2A3541"/>
<path d="M11.7046 44.5496H17.1532H17.1525C17.691 44.5496 18.1276 44.1135 18.1276 43.5748C18.1276 43.0361 17.691 42.6 17.1525 42.6H11.7047C11.1662 42.6 10.7296 43.0361 10.7296 43.5748C10.7296 44.1135 11.1662 44.5496 11.7046 44.5496Z" fill="#2A3541"/>
<path d="M86.3156 44.2771H64.0061V16.4499C64.0061 15.8453 64.9806 17.0349 48.1969 0.244846C48.0089 0.0790013 47.7648 -0.00848804 47.5148 0.000655085H0.974449C0.435979 0.000655085 0 0.437469 0 0.975476V92.6308C0 92.8893 0.10247 93.1374 0.285216 93.3203C0.467962 93.5031 0.715983 93.6056 0.974449 93.6056C51.4915 93.6056 60.0196 93.7126 86.3174 93.7126C87.1287 93.7153 87.9067 93.3953 88.481 92.8227C89.0554 92.2501 89.3778 91.4718 89.3778 90.6608V47.3387C89.3778 46.5271 89.0554 45.7482 88.4817 45.1743C87.908 44.5997 87.1293 44.2772 86.3174 44.2772L86.3156 44.2771ZM48.4888 3.29517L60.6724 15.4736H48.4888V3.29517ZM1.9484 91.6542V1.95129H46.5405V16.4502C46.5405 16.7088 46.6437 16.9563 46.8264 17.1391C47.0092 17.3226 47.2572 17.4251 47.5156 17.4251H62.0574V44.2778H53.3441C52.6542 44.2791 51.9846 44.5122 51.4435 44.9405C50.9024 45.3682 50.5213 45.9663 50.3614 46.6374H44.6889C44.1505 46.6374 43.7145 47.0742 43.7145 47.6122V52.0098C43.7145 52.2684 43.817 52.5165 43.9997 52.6993C44.1824 52.8821 44.4305 52.9853 44.6889 52.9853H50.332V59.2449H31.3074C30.769 59.2449 30.3323 59.6817 30.3323 60.2197C30.3323 60.7584 30.769 61.1952 31.3074 61.1952H50.2835V64.7928H46.2871C45.7486 64.7928 45.3127 65.2296 45.3127 65.7676C45.3127 66.3063 45.7487 66.7431 46.2871 66.7431H50.2835V70.3406H11.7065C11.168 70.3406 10.7314 70.7775 10.7314 71.3155C10.7314 71.8541 11.168 72.2909 11.7065 72.2909H50.2835V75.8885H40.6727C40.1348 75.8885 39.6982 76.3253 39.6982 76.8633C39.6982 77.402 40.1349 77.8388 40.6727 77.8388H50.2828C50.2828 91.6842 50.2143 90.9334 50.4486 91.6163L1.9484 91.6542ZM50.2833 51.0333H45.663V48.5861H50.3316L50.2833 51.0333ZM87.4284 90.6196C87.4225 91.2301 86.9271 91.7217 86.3168 91.7217C50.8493 91.7217 53.1785 91.7805 52.8761 91.6147C52.493 91.439 52.243 91.061 52.2325 90.6392C52.2325 43.9641 52.1059 47.1316 52.4662 46.6753C52.6757 46.403 53.0007 46.2443 53.344 46.2463H86.317C86.9305 46.2463 87.4285 46.7438 87.4285 47.3576L87.4284 90.6196Z" fill="#2A3541"/>
<path d="M82.5529 50.1274H57.1039C56.5655 50.1274 56.1295 50.5642 56.1295 51.1029V58.2106C56.1295 58.4692 56.232 58.7173 56.4147 58.9001C56.5974 59.083 56.8455 59.1855 57.1039 59.1855H82.5529C82.8114 59.1855 83.0594 59.0829 83.2422 58.9001C83.4249 58.7173 83.5274 58.4692 83.5274 58.2106V51.1029C83.5274 50.8443 83.4249 50.5962 83.2422 50.4134C83.0594 50.2306 82.8114 50.1274 82.5529 50.1274ZM81.5785 57.2352L58.0794 57.2358V52.0777H81.5785V57.2352Z" fill="#2A3541"/>
<path d="M62.0564 61.4285H58.0698C56.9936 61.4285 56.1209 62.3014 56.1209 63.3788V66.7427C56.1209 67.2598 56.3259 67.7554 56.692 68.1217C57.0575 68.4873 57.5529 68.6923 58.0699 68.6923H62.0564C63.0948 68.6408 63.91 67.7828 63.9087 66.7427V63.3788C63.91 62.3387 63.0948 61.4808 62.0564 61.4285ZM61.9591 66.7133H58.0606V63.3788H61.9591V66.7133Z" fill="#2A3541"/>
<path d="M71.7943 61.4284H67.8952C66.8189 61.4284 65.9463 62.3014 65.9463 63.3787V66.7427C65.9463 67.2598 66.1512 67.7553 66.5167 68.1216C66.8822 68.4873 67.3783 68.6923 67.8952 68.6923H71.7943C72.3113 68.6923 72.8067 68.4873 73.1722 68.1216C73.5383 67.7553 73.7433 67.2598 73.7433 66.7427V63.3787C73.7433 62.8616 73.5383 62.3654 73.1722 61.9998C72.8067 61.6341 72.3113 61.4284 71.7943 61.4284ZM71.7943 66.7132H67.8959V63.3592H71.7943V66.7132Z" fill="#2A3541"/>
<path d="M81.5987 61.4285H77.6996C76.6233 61.4285 75.7507 62.3014 75.7507 63.3788V66.7427C75.7507 67.2598 75.9556 67.7554 76.3211 68.1217C76.6866 68.4873 77.1826 68.6923 77.6996 68.6923H81.5987C82.1157 68.6923 82.611 68.4873 82.9765 68.1217C83.3427 67.7554 83.5476 67.2598 83.5476 66.7427V63.3788C83.5476 62.8616 83.3427 62.3654 82.9765 61.9998C82.611 61.6341 82.1156 61.4285 81.5987 61.4285ZM81.5987 66.7133H77.7002V63.3592H81.5987V66.7133Z" fill="#2A3541"/>
<path d="M62.0564 71.3354H58.0698C56.9936 71.3354 56.1209 72.2084 56.1209 73.2858V76.6497C56.1209 77.1668 56.3259 77.663 56.692 78.0287C57.0575 78.3943 57.5529 78.6 58.0699 78.6H62.0564C63.0948 78.5477 63.91 77.6898 63.9087 76.6497V73.2662C63.8996 72.2339 63.0876 71.3871 62.0564 71.3354ZM61.9591 76.6106H58.0606V73.2858H61.9591V76.6106Z" fill="#2A3541"/>
<path d="M71.7943 71.3354H67.8952C66.8189 71.3354 65.9463 72.2084 65.9463 73.2857V76.6496C65.9463 77.1668 66.1512 77.663 66.5167 78.0286C66.8822 78.3943 67.3783 78.6 67.8952 78.6H71.7943C72.3113 78.6 72.8067 78.3943 73.1722 78.0286C73.5383 77.663 73.7433 77.1668 73.7433 76.6496V73.2662C73.7328 72.1967 72.8628 71.3354 71.7943 71.3354ZM71.7943 76.6105H67.8959V73.2662H71.7943V76.6105Z" fill="#2A3541"/>
<path d="M81.5987 71.3354H77.6996C76.6233 71.3354 75.7507 72.2084 75.7507 73.2858V76.6497C75.7507 77.1668 75.9556 77.663 76.3211 78.0287C76.6866 78.3943 77.1826 78.6 77.6996 78.6H81.5987C82.1157 78.6 82.611 78.3943 82.9765 78.0287C83.3427 77.663 83.5476 77.1668 83.5476 76.6497V73.2662C83.5372 72.1967 82.6671 71.3354 81.5987 71.3354ZM81.5987 76.6106H77.7002V73.2662H81.5987V76.6106Z" fill="#2A3541"/>
<path d="M62.0564 81.2024H58.0698C56.9936 81.2024 56.1209 82.0753 56.1209 83.152V86.5159C56.1209 87.0337 56.3259 87.5293 56.692 87.8949C57.0575 88.2605 57.5529 88.4662 58.0699 88.4662H62.0564C63.0948 88.414 63.91 87.556 63.9087 86.5159V83.1428C63.9048 82.106 63.0909 81.2538 62.0564 81.2024ZM61.9591 86.4872H58.0606V83.152H61.9591V86.4872Z" fill="#2A3541"/>
<path d="M71.7943 81.2023H67.8952C66.8189 81.2023 65.9463 82.0753 65.9463 83.152V86.5159C65.9463 87.0337 66.1512 87.5292 66.5167 87.8949C66.8822 88.2605 67.3783 88.4662 67.8952 88.4662H71.7943C72.3113 88.4662 72.8067 88.2605 73.1722 87.8949C73.5383 87.5292 73.7433 87.0337 73.7433 86.5159V83.1428C73.738 82.0694 72.8667 81.2023 71.7943 81.2023ZM71.7943 86.4871H67.8959V83.1331H71.7943V86.4871Z" fill="#2A3541"/>
<path d="M81.5987 81.2024H77.6996C76.6233 81.2024 75.7507 82.0753 75.7507 83.152V86.5159C75.7507 87.0337 75.9556 87.5293 76.3211 87.8949C76.6866 88.2605 77.1826 88.4662 77.6996 88.4662H81.5987C82.1157 88.4662 82.611 88.2605 82.9765 87.8949C83.3427 87.5293 83.5476 87.0337 83.5476 86.5159V83.1428C83.5424 82.0694 82.671 81.2024 81.5987 81.2024ZM81.5987 86.4872H77.7002V83.1331H81.5987V86.4872Z" fill="#2A3541"/>
</svg>